<svg width="27" height="25" viewBox="0 0 27 25" fill="none" xmlns="http://www.w3.org/2000/svg">
<path d="M21.9521 23.2909H21.8397C21.2306 23.2909 20.7188 22.7908 20.6746 22.1524C20.6302 21.483 21.1187 20.9002 21.7637 20.8562C21.7891 20.8545 21.8156 20.8536 21.8417 20.8536C22.4587 20.8536 22.9755 21.344 23.0213 21.9715C23.0331 22.2202 22.9926 22.5748 22.7371 22.8676L22.7312 22.8745L22.7254 22.8813C22.5287 23.1152 22.2619 23.2562 21.9521 23.2909ZM8.22003 23.2846C7.56946 23.2846 7.04022 22.741 7.04022 22.073C7.04022 21.4054 7.56946 20.8622 8.22003 20.8622C8.87061 20.8622 9.39984 21.4054 9.39984 22.073C9.39984 22.741 8.87061 23.2846 8.22003 23.2846Z" fill="white"/>
<path d="M21.8765 22.2898C21.9215 22.2785 21.9428 22.2575 21.9605 22.2364C21.9683 22.2273 21.9761 22.2181 21.9839 22.2091C22.0204 22.1673 22.0237 22.0787 22.0229 22.0338C22.0097 21.9276 21.9189 21.8547 21.8417 21.8547C21.838 21.8547 21.8341 21.8548 21.8317 21.8549C21.7536 21.8603 21.6658 21.9642 21.6724 22.0859C21.6818 22.2028 21.7679 22.2898 21.8397 22.2898H21.8765ZM8.22003 22.2835C8.31921 22.2835 8.39984 22.189 8.39984 22.0729C8.39984 21.9573 8.31921 21.8632 8.22003 21.8632C8.12091 21.8632 8.04022 21.9573 8.04022 22.0729C8.04022 22.189 8.12091 22.2835 8.22003 22.2835ZM21.9999 24.292C21.9522 24.292 21.8883 24.292 21.8397 24.292C20.7021 24.292 19.7571 23.3793 19.677 22.2215C19.5969 21.0152 20.4942 19.9394 21.6957 19.8574C21.7446 19.8541 21.7933 19.8525 21.8417 19.8525C22.9804 19.8525 23.9418 20.7544 24.0195 21.9116C24.051 22.5153 23.8746 23.0856 23.4903 23.5262C23.106 23.9829 22.5768 24.2434 21.9999 24.292ZM8.22003 24.2856C7.01581 24.2856 6.04022 23.2956 6.04022 22.0729C6.04022 20.8512 7.01581 19.8611 8.22003 19.8611C9.42419 19.8611 10.3998 20.8512 10.3998 22.0729C10.3998 23.2956 9.42419 24.2856 8.22003 24.2856ZM21.1989 17.4122H9.13354C8.70062 17.4122 8.31635 17.1185 8.2038 16.6951L4.27802 2.24978H1.52222C0.993896 2.24978 0.561035 1.81022 0.561035 1.27144C0.561035 0.733505 0.993896 0.292969 1.52222 0.292969H4.99982C5.43182 0.292969 5.8161 0.586619 5.92859 1.01102L9.85443 15.4554H20.5581L24.1149 7.14114H12.2583C11.7291 7.14114 11.2962 6.7006 11.2962 6.16279C11.2962 5.62486 11.7291 5.18433 12.2583 5.18433H25.5891C25.9095 5.18433 26.2146 5.34734 26.3901 5.62486C26.5665 5.9014 26.5989 6.24381 26.4702 6.55372L22.08 16.8247C21.9198 17.1834 21.5832 17.4122 21.1989 17.4122Z" fill="white"/>
<path d="M21.8765 22.2898C21.9215 22.2785 21.9428 22.2575 21.9605 22.2364C21.9683 22.2273 21.9761 22.2181 21.9839 22.2091C22.0204 22.1673 22.0237 22.0787 22.0229 22.0338C22.0097 21.9276 21.9189 21.8547 21.8417 21.8547C21.838 21.8547 21.8341 21.8548 21.8317 21.8549C21.7536 21.8603 21.6658 21.9642 21.6724 22.0859C21.6818 22.2028 21.7679 22.2898 21.8397 22.2898H21.8765ZM8.22003 22.2835C8.31921 22.2835 8.39984 22.189 8.39984 22.0729C8.39984 21.9573 8.31921 21.8632 8.22003 21.8632C8.12091 21.8632 8.04022 21.9573 8.04022 22.0729C8.04022 22.189 8.12091 22.2835 8.22003 22.2835ZM21.9999 24.292C21.9522 24.292 21.8883 24.292 21.8397 24.292C20.7021 24.292 19.7571 23.3793 19.677 22.2215C19.5969 21.0152 20.4942 19.9394 21.6957 19.8574C21.7446 19.8541 21.7933 19.8525 21.8417 19.8525C22.9804 19.8525 23.9418 20.7544 24.0195 21.9116C24.051 22.5153 23.8746 23.0856 23.4903 23.5262C23.106 23.9829 22.5768 24.2434 21.9999 24.292ZM8.22003 24.2856C7.01581 24.2856 6.04022 23.2956 6.04022 22.0729C6.04022 20.8512 7.01581 19.8611 8.22003 19.8611C9.42419 19.8611 10.3998 20.8512 10.3998 22.0729C10.3998 23.2956 9.42419 24.2856 8.22003 24.2856ZM21.1989 17.4122H9.13354C8.70062 17.4122 8.31635 17.1185 8.2038 16.6951L4.27802 2.24978H1.52222C0.993896 2.24978 0.561035 1.81022 0.561035 1.27144C0.561035 0.733505 0.993896 0.292969 1.52222 0.292969H4.99982C5.43182 0.292969 5.8161 0.586619 5.92859 1.01102L9.85443 15.4554H20.5581L24.1149 7.14114H12.2583C11.7291 7.14114 11.2962 6.7006 11.2962 6.16279C11.2962 5.62486 11.7291 5.18433 12.2583 5.18433H25.5891C25.9095 5.18433 26.2146 5.34734 26.3901 5.62486C26.5665 5.9014 26.5989 6.24381 26.4702 6.55372L22.08 16.8247C21.9198 17.1834 21.5832 17.4122 21.1989 17.4122Z" fill="white"/>
</svg>
