<svg width="26" height="28" viewBox="0 0 26 28" fill="none" xmlns="http://www.w3.org/2000/svg">
<path d="M18.0589 17.7601C19.6705 15.9864 20.6275 13.7078 20.769 11.307C20.9106 8.9062 20.2281 6.52944 18.8362 4.57584C17.4443 2.62224 15.4278 1.21077 13.1252 0.578482C10.8227 -0.0538097 8.37437 0.131579 6.19143 1.10351C4.0085 2.07545 2.22389 3.77473 1.1373 5.91601C0.0507149 8.05729 -0.271678 10.5101 0.224264 12.8627C0.720206 15.2152 2.00428 17.3241 3.86085 18.8352C5.71741 20.3464 8.0334 21.1677 10.4199 21.1614C12.6723 21.1645 14.8638 20.4248 16.6599 19.0551L24.4079 26.9227C24.4934 27.0125 24.5958 27.0841 24.7091 27.1335C24.8225 27.1828 24.9444 27.2088 25.0679 27.21C25.1916 27.2104 25.314 27.1851 25.4276 27.1356C25.5411 27.0862 25.6434 27.0138 25.7279 26.9227C25.9018 26.7405 25.999 26.4974 25.999 26.2445C25.999 25.9916 25.9018 25.7486 25.7279 25.5663L18.0589 17.7601ZM1.88589 10.5798C1.89873 8.88146 2.41021 7.22494 3.35586 5.81909C4.30151 4.41324 5.63899 3.321 7.1997 2.68005C8.76042 2.03911 10.4745 1.87815 12.1258 2.21747C13.7772 2.5568 15.2919 3.38121 16.479 4.58679C17.6661 5.79236 18.4725 7.32513 18.7965 8.99187C19.1204 10.6586 18.9475 12.3847 18.2995 13.9525C17.6515 15.5204 16.5574 16.8598 15.1551 17.8019C13.7529 18.7441 12.1052 19.2468 10.4199 19.2466C8.14843 19.2357 5.97409 18.3169 4.3741 16.6921C2.77412 15.0672 1.87924 12.8689 1.88589 10.5798V10.5798Z" fill="#E8E8E8"/>
</svg>
